<?xml version="1.0" encoding="utf-8"?>
<!-- Generator: Adobe Illustrator 24.0.3, SVG Export Plug-In . SVG Version: 6.00 Build 0)  -->
<svg version="1.1" id="bold" xmlns="http://www.w3.org/2000/svg" xmlns:xlink="http://www.w3.org/1999/xlink" x="0px" y="0px"
	 viewBox="0 0 512 277" style="enable-background:new 0 0 512 277;" xml:space="preserve">
<style type="text/css">
	.st0{fill:#2AA9E2;}
</style>
<circle class="st0" cx="85.3" cy="85" r="42.7"/>
<path class="st0" d="M142.3,157.5c-21.5,16.2-35.6,42.2-35.6,71.5v5.3H16c-8.7,0-16-7.3-16-16v-10.7C0,175.2,26.2,149,58.7,149H112
	C123.1,149,133.5,152.2,142.3,157.5z"/>
<circle class="st0" cx="426.7" cy="85" r="42.7"/>
<path class="st0" d="M512,207.7v10.7c0,8.7-7.3,16-16,16h-90.7V229c0-29.2-14.1-55.3-35.6-71.5c8.7-5.3,19.2-8.5,30.3-8.5h53.3
	C485.8,149,512,175.2,512,207.7z"/>
<circle class="st0" cx="256" cy="74.3" r="64"/>
<path class="st0" d="M314.7,170.3H197.3c-32.4,0-58.7,26.3-58.7,58.7v32c0,8.8,7.2,16,16,16h202.7c8.8,0,16-7.2,16-16v-32
	C373.3,196.6,347,170.3,314.7,170.3z"/>
</svg>
