<svg id="_30" data-name="30" xmlns="http://www.w3.org/2000/svg" viewBox="0 0 496 496"><title>consulting</title><path d="M256,424a24,24,0,1,0,24,24A24,24,0,0,0,256,424Zm0,32a8,8,0,1,1,8-8A8,8,0,0,1,256,456Z" transform="translate(-8 -8)"/><path d="M40,152H152v16H40Z" transform="translate(-8 -8)"/><path d="M40,184H152v16H40Z" transform="translate(-8 -8)"/><path d="M40,120H72v16H40Z" transform="translate(-8 -8)"/><path d="M88,120h64v16H88Z" transform="translate(-8 -8)"/><path d="M456,200h16v16H456Z" transform="translate(-8 -8)"/><path d="M424,200h16v16H424Z" transform="translate(-8 -8)"/><path d="M392,200h16v16H392Z" transform="translate(-8 -8)"/><path d="M488,168H408V56A48.05,48.05,0,0,0,360,8H144a40,40,0,0,0-40,40V88H24A16,16,0,0,0,8,104V216a16,16,0,0,0,16,16H91.06l11.06,22.12a18.18,18.18,0,0,0,1.88,2.74V456a48.05,48.05,0,0,0,48,48H360a48.05,48.05,0,0,0,48-48V279.66a18.12,18.12,0,0,0,3.31.34A19.4,19.4,0,0,0,425,274.34L451.31,248H488a16,16,0,0,0,16-16V184A16,16,0,0,0,488,168ZM120,48a24,24,0,0,1,24-24H360a32,32,0,0,1,32,32V168H376V56a16,16,0,0,0-16-16H152a16,16,0,0,0-16,16V88H120Zm32,184h16a16,16,0,0,0,15.63-12.65A31.66,31.66,0,0,0,200,224h5.48a56.4,56.4,0,0,0,14.58,18.89l-.76,3.85a16,16,0,0,1-12.56,12.55l-19.29,3.85A63.83,63.83,0,0,0,152,283.73Zm160-32V176a16,16,0,0,1,0,32h-.64A55.58,55.58,0,0,0,312,200Zm13.22-41-1.13,3.4A31.8,31.8,0,0,0,312,160h-1.47A24,24,0,0,0,288,144H256a8,8,0,0,1,0-16h8V112h-8a24.05,24.05,0,0,0-23.12,17.54l-2.58.64A39.85,39.85,0,0,0,201.14,160H200a31.69,31.69,0,0,0-11.38,2.19C186.5,154.83,184,144.39,184,136a22.71,22.71,0,0,1,17.22-22.06L212.94,111l1.72-2.58A45.77,45.77,0,0,1,252.84,88h21.21A54,54,0,0,1,328,142,53.44,53.44,0,0,1,325.22,159ZM253.77,328h4.46l10.67,32H243.1Zm5.29-16H253l-5.9-11.8,8.95-3.58L265,300.2Zm-21-25.43L222,293l-3.5-18.12Zm35.9,0,19.53-11.71L290,293Zm8.74-23.89-26.69,16-26.69-16a32,32,0,0,0,5.17-11,55.88,55.88,0,0,0,43,0A32,32,0,0,0,282.69,262.68ZM256,240a40,40,0,0,1-40-40V169a24,24,0,0,1,18.06-23.24A24,24,0,0,0,256,160h32a8,8,0,0,1,8,8v32a40,40,0,0,1-40,40Zm-56-64v24a55.58,55.58,0,0,0,.64,8H200a16,16,0,0,1,0-32Zm-9.42,102.84,12-2.39L210,315l22.16-8.86,7.22,14.45L226.24,360H200V328H184v32H152V325.91a48.12,48.12,0,0,1,38.58-47.07ZM152,376H360v16H152Zm208-16H328V328H312v32H285.76l-13.12-39.38,7.22-14.45L302,315l7.44-38.57,12,2.39A48.11,48.11,0,0,1,360,325.91Zm-35.45-96.85-19.29-3.85a16,16,0,0,1-12.56-12.55l-.76-3.85A56.5,56.5,0,0,0,306.52,224H312a32,32,0,0,0,32-32,31.68,31.68,0,0,0-6.52-19.15l2.92-8.78A69.93,69.93,0,0,0,274.06,72H252.85a61.75,61.75,0,0,0-49.67,25l-5.84,1.46A38.67,38.67,0,0,0,184,104.75V104a16,16,0,0,0-16-16H152V56H360V283.74a63.74,63.74,0,0,0-35.45-20.59ZM100.94,216H24V104H168V216H120v30.11c0,1.76-2.8,2.41-3.58.84ZM392,456a32,32,0,0,1-32,32H152a32,32,0,0,1-32-32V263.81a17.85,17.85,0,0,0,16-17.7V392a16,16,0,0,0,16,16H360a16,16,0,0,0,16-16V248h16Zm96-224H444.69l-31,31c-1.87,1.9-5.65.36-5.65-2.34V232H376V184H488Z" transform="translate(-8 -8)"/></svg>