<?xml version="1.0" encoding="utf-8"?>
<!-- Generator: Adobe Illustrator 24.0.3, SVG Export Plug-In . SVG Version: 6.00 Build 0)  -->
<svg version="1.1" id="Capa_1" xmlns="http://www.w3.org/2000/svg" xmlns:xlink="http://www.w3.org/1999/xlink" x="0px" y="0px"
	 viewBox="0 0 512 512" style="enable-background:new 0 0 512 512;" xml:space="preserve">
<style type="text/css">
	.st0{fill:#2AA9E2;}
</style>
<title>result</title>
<path class="st0" d="M509.1,93.9l-91-91C416.2,1,413.7,0,411,0H114C97.4,0,84,13.4,84,30v19.1c-50.6,19.8-83.9,68.6-84,123
	c0,5.5,4.5,10,10,10h122.1c5.5,0,10-4.5,10-10V50c0-5.5-4.5-10-10-10c-9.4,0-18.9,1-28.1,3V30c0-5.5,4.5-10,10-10h287v61
	c0,16.6,13.4,30,30,30h61v371c0,5.5-4.5,10-10,10H114c-5.5,0-10-4.5-10-10v-85.7c0-5.5-4.5-10-10-10s-10,4.5-10,10V482
	c0,16.6,13.4,30,30,30l0,0h368c16.6,0,30-13.4,30-30l0,0V101C512,98.3,510.9,95.8,509.1,93.9z M122.1,60.4v101.6H20.4
	C25.3,108.1,68.1,65.3,122.1,60.4L122.1,60.4z M431,91c-5.5,0-10-4.5-10-10V34.1L477.9,91H431z"/>
<path class="st0" d="M101.1,352.9c-3.9-3.9-10.2-3.9-14.1,0s-3.9,10.2,0,14.1c3.9,3.9,10.2,3.9,14.1,0c1.9-1.9,2.9-4.4,2.9-7.1
	C104,357.3,102.9,354.8,101.1,352.9z"/>
<path class="st0" d="M167.9,75.8c-5.5,0-10,4.5-10,10v112.1H45.8c-5.5,0-10,4.5-10,10c0,72.8,59.2,132.1,132.1,132.1
	S300,280.7,300,207.9S240.7,75.8,167.9,75.8z M177.9,96.3c22.8,2,44.3,11,61.8,25.7l-61.8,61.8V96.3z M167.9,320
	c-58-0.1-106.4-44.3-111.7-102.1h111.7c2.7,0,5.2-1,7.1-2.9l0,0l78.9-78.9c39.7,47.4,33.5,118.1-13.9,157.8
	C219.8,310.8,194.3,320.1,167.9,320L167.9,320z"/>
<path class="st0" d="M438.1,315.6c-16.6,0-30,13.4-30,30c0,4,0.8,8,2.4,11.7l-57.6,57.6c-8.2-4-17.7-4-25.9-0.1l-38.3-38.2
	c6-15.4-1.6-32.8-17-38.9s-32.8,1.6-38.9,17c-3,7.6-2.7,16.1,0.7,23.5l-36.7,36.7c-15-7.1-32.9-0.7-40,14.3
	c-7.1,15-0.7,32.9,14.3,40c15,7.1,32.9,0.7,40-14.3c3.9-8.2,3.9-17.7-0.1-25.8l36.5-36.5c8.9,4.4,19.5,4.1,28.1-0.8l37.2,37.2
	c-7.2,14.9-0.9,32.9,14,40.1c14.9,7.2,32.9,0.9,40.1-14c3.9-8.1,4-17.6,0.1-25.8l57.1-57.1c14.6,7.8,32.8,2.3,40.6-12.3
	c7.8-14.6,2.3-32.8-12.3-40.6C447.9,316.8,443.1,315.6,438.1,315.6L438.1,315.6z M183.9,451.9c-5.5,0-10-4.5-10-10
	c0-5.5,4.5-10,10-10c2.6,0,5.1,1,6.9,2.8l0.1,0.1l0.1,0.1c3.8,4,3.7,10.3-0.3,14.1C189,450.9,186.5,451.9,183.9,451.9L183.9,451.9z
	 M260.7,375.6c-5.5,0-10-4.5-10-10s4.5-10,10-10c5.5,0,10,4.5,10,10C270.7,371.1,266.3,375.6,260.7,375.6L260.7,375.6z M339.7,451.9
	c-5.5,0-10-4.5-10-10s4.5-10,10-10s10,4.5,10,10C349.7,447.4,345.3,451.9,339.7,451.9L339.7,451.9z M438.1,355.6
	c-5.5,0-10-4.5-10-10s4.5-10,10-10s10,4.5,10,10C448.1,351.1,443.6,355.6,438.1,355.6L438.1,355.6z"/>
<path class="st0" d="M388.1,235h-52.8c-5.5,0-10,4.5-10,10s4.5,10,10,10h52.8c5.5,0,10-4.5,10-10S393.6,235,388.1,235z"/>
<path class="st0" d="M440.7,237.9c-3.9-3.9-10.2-3.9-14.1,0c-3.9,3.9-3.9,10.2,0,14.1s10.2,3.9,14.1,0c1.9-1.9,2.9-4.4,2.9-7.1
	C443.6,242.3,442.6,239.8,440.7,237.9z"/>
<path class="st0" d="M457.5,139H335.3c-5.5,0-10,4.5-10,10s4.5,10,10,10h122.1c5.5,0,10-4.5,10-10S463,139,457.5,139z"/>
<path class="st0" d="M457.5,187H335.3c-5.5,0-10,4.5-10,10s4.5,10,10,10h122.1c5.5,0,10-4.5,10-10S463,187,457.5,187z"/>
</svg>
