<svg id="Capa_1" data-name="Capa 1" xmlns="http://www.w3.org/2000/svg" viewBox="0 0 480 480"><title>training</title><path d="M123.58,102.5A47.6,47.6,0,0,0,89.23,88H86.77a47.6,47.6,0,0,0-34.31,14.5A44,44,0,0,0,40,135.13L41,156.66A46,46,0,0,0,87.7,200h.6A46,46,0,0,0,135,156.66l1-21.53A44,44,0,0,0,123.58,102.5ZM119,156A30,30,0,0,1,88.3,184h-.6A30,30,0,0,1,57,156l-.28-6.54A72.2,72.2,0,0,0,98.5,133.77a35.77,35.77,0,0,0,20.87,14.63Zm-10-37.82a8,8,0,0,0-14.9-3c-.1.17-10,15.87-38,18.27A28.24,28.24,0,0,1,64,113.6,31.6,31.6,0,0,1,86.77,104h2.46A31.6,31.6,0,0,1,112,113.6a28.17,28.17,0,0,1,7.81,18A18.93,18.93,0,0,1,109,118.18Z" transform="translate(0 0)"/><path d="M435.58,294.5A47.6,47.6,0,0,0,401.23,280h-2.46a47.6,47.6,0,0,0-34.31,14.5A44,44,0,0,0,352,327.13l.94,21.53A46,46,0,0,0,399.7,392h.6A46,46,0,0,0,447,348.66l1-21.53A44,44,0,0,0,435.58,294.5Zm-3.58,32L431,348a30,30,0,0,1-30.74,28h-.6A30,30,0,0,1,369,348l-1-21.56a28.21,28.21,0,0,1,8-20.84,31.64,31.64,0,0,1,22.77-9.6h2.46A31.64,31.64,0,0,1,424,305.6,28.22,28.22,0,0,1,432,326.48Z" transform="translate(0 0)"/><path d="M247.13,116.34a22.15,22.15,0,0,0-30.79,0L127,205.66a8,8,0,0,1-5.66,2.34H40A40.05,40.05,0,0,0,0,248V360a24,24,0,0,0,32,22.63V392a8,8,0,0,0,8,8h96a8,8,0,0,0,8-8V262.29a8,8,0,0,1,2.14-5.46L247.66,147.66A22.15,22.15,0,0,0,247.13,116.34Zm-10.9,20.13-.09.08L134.4,245.94a24,24,0,0,0-6.4,16.35V384H48V264a8,8,0,0,0-16,0v96a8,8,0,0,1-16,0V248a24,24,0,0,1,24-24h81.37a23.81,23.81,0,0,0,17-7l89.32-89.31a6.3,6.3,0,0,1,8.68,0A6.22,6.22,0,0,1,236.23,136.47Z" transform="translate(0 0)"/><path d="M88,232a8,8,0,0,0-8,8v96a8,8,0,0,0,16,0V240A8,8,0,0,0,88,232Z" transform="translate(0 0)"/><path d="M259.54,294.5A47.59,47.59,0,0,0,225.23,280h-2.46a47.6,47.6,0,0,0-34.31,14.5A44,44,0,0,0,176,327.13l.94,21.53A46,46,0,0,0,223.7,392h.6A46,46,0,0,0,271,348.66l.94-21.53A44,44,0,0,0,259.54,294.5Zm-3.54,32L255,348a30,30,0,0,1-30.74,28h-.6A30,30,0,0,1,193,348l-1-21.56a28.21,28.21,0,0,1,8-20.84,31.64,31.64,0,0,1,22.77-9.6h2.46A31.64,31.64,0,0,1,248,305.6,28.22,28.22,0,0,1,256,326.48Z" transform="translate(0 0)"/><path d="M265.34,400H182.66A38.7,38.7,0,0,0,144,438.66V472a8,8,0,0,0,16,0V438.66A22.68,22.68,0,0,1,182.66,416h82.68A22.68,22.68,0,0,1,288,438.66V472a8,8,0,0,0,16,0V438.66A38.7,38.7,0,0,0,265.34,400Z" transform="translate(0 0)"/><path d="M441.34,400H358.66A38.7,38.7,0,0,0,320,438.66V472a8,8,0,0,0,16,0V438.66A22.68,22.68,0,0,1,358.66,416h82.68A22.68,22.68,0,0,1,464,438.66V472a8,8,0,0,0,16,0V438.66A38.7,38.7,0,0,0,441.34,400Z" transform="translate(0 0)"/><path d="M456.4,0H175.6A23.83,23.83,0,0,0,152,24V144a8,8,0,0,0,16,0V48H464V240a7.83,7.83,0,0,1-7.6,8h-273a8,8,0,1,0,0,16h273A23.83,23.83,0,0,0,480,240V24A23.83,23.83,0,0,0,456.4,0ZM464,32H168V24a7.81,7.81,0,0,1,7.6-8H456.4a7.82,7.82,0,0,1,7.6,8Z" transform="translate(0 0)"/><path d="M440,102a8,8,0,0,0-8,8V224a8,8,0,0,0,16,0V110A8,8,0,0,0,440,102Z" transform="translate(0 0)"/><path d="M408,152a8,8,0,0,0-8,8v64a8,8,0,0,0,16,0V160A8,8,0,0,0,408,152Z" transform="translate(0 0)"/><path d="M376,136a8,8,0,0,0-8,8v80a8,8,0,0,0,16,0V144A8,8,0,0,0,376,136Z" transform="translate(0 0)"/><path d="M344,184a8,8,0,0,0-8,8v32a8,8,0,0,0,16,0V192A8,8,0,0,0,344,184Z" transform="translate(0 0)"/><path d="M444.44,65.34a8,8,0,0,0-11.1,2.22l-27.31,41L380.8,89.6a8,8,0,0,0-12,2.82l-31.15,62.32L307.2,177.6a8,8,0,0,0,9.6,12.8l32-24a8.06,8.06,0,0,0,2.4-2.82l27.7-55.43,24.3,18.25a8,8,0,0,0,11.2-1.6l.26-.36,32-48A8,8,0,0,0,444.44,65.34Z" transform="translate(0 0)"/><path d="M288,64H192a8,8,0,0,0,0,16h96a8,8,0,0,0,0-16Z" transform="translate(0 0)"/><path d="M336,64H320a8,8,0,0,0,0,16h16a8,8,0,0,0,0-16Z" transform="translate(0 0)"/></svg>