<?xml version="1.0" encoding="utf-8"?>
<!-- Generator: Adobe Illustrator 24.0.3, SVG Export Plug-In . SVG Version: 6.00 Build 0)  -->
<svg version="1.1" id="Layer_1" xmlns="http://www.w3.org/2000/svg" xmlns:xlink="http://www.w3.org/1999/xlink" x="0px" y="0px"
	 viewBox="0 0 511 511" style="enable-background:new 0 0 511 511;" xml:space="preserve">
<style type="text/css">
	.st0{fill:#2AA9E2;}
</style>
<path class="st0" d="M241.2,375.9h29.9V510h-29.9V375.9z"/>
<path class="st0" d="M409.5,339.7c0-47.8-24.3-92.7-63.9-119V100.6c-4.9,0.9-9.9,1.4-15,1.4h-149c-5.1,0-10.1-0.5-15-1.4v120.1
	c-39.6,26.3-63.9,71.1-63.9,119v6.3h306.7L409.5,339.7L409.5,339.7z"/>
<path class="st0" d="M330.7,72c27.6,0,49.9-22.3,49.9-49.9V-1H131.7v23.1c0,27.6,22.3,49.9,49.9,49.9H330.7z"/>
</svg>
