<svg id="Layer_3" enable-background="new 0 0 64 64" height="512" viewBox="0 0 64 64" width="512" xmlns="http://www.w3.org/2000/svg"><g><g><path d="m60 6v26h-36v-26" fill="#c7e2fc"/></g><g><path d="m24 26.293c2.748 1.094 5.792 1.707 9 1.707 12.15 0 22-8.73 22-19.5 0-.848-.068-1.681-.186-2.5h-30.814z" fill="#ebf7fe"/></g><g><path d="m22 2h40v4h-40z" fill="#4d5d7a"/></g><g><path d="m20 26c0-2.209-1.791-4-4-4h-10c-2.209 0-4 1.791-4 4v8h3v4h12v-4h3z" fill="#3d98f7"/></g><g><path d="m2 34h12v-3h-9v-4h-3v4z" fill="#efbe9a"/></g><g><path d="m11 20c-1.657 0-3-1.343-3-3v-2c0-1.657 1.343-3 3-3 1.657 0 3 1.343 3 3v2c0 1.657-1.343 3-3 3z" fill="#efbe9a"/></g><g><path d="m3 62h6v-4h-4c-1.105 0-2 .895-2 2z" fill="#3d98f7"/></g><g><path d="m19 62h-6v-4h4c1.105 0 2 .895 2 2z" fill="#3d98f7"/></g><g><path d="m17 58h-4v-16h-4v16h-4v-20h12z" fill="#4d5d7a"/></g><g><path d="m17 31v-4h3v7h-7v-3z" fill="#db9b7c"/></g><g><path d="m30.293 24.293-1.293 1.293-1.293-1.293-1.414 1.414 1.293 1.293-1.293 1.293 1.414 1.414 1.293-1.293 1.293 1.293 1.414-1.414-1.293-1.293 1.293-1.293z" fill="#4472b2"/></g><g><path d="m53.707 13.707 1.293-1.293 1.293 1.293 1.414-1.414-1.293-1.293 1.293-1.293-1.414-1.414-1.293 1.293-1.293-1.293-1.414 1.414 1.293 1.293-1.293 1.293z" fill="#4472b2"/></g><g><path d="m55 24c-1.654 0-3 1.346-3 3s1.346 3 3 3 3-1.346 3-3-1.346-3-3-3zm0 4c-.551 0-1-.449-1-1s.449-1 1-1 1 .449 1 1-.449 1-1 1z" fill="#669e4f"/></g><g><path d="m29 14c1.654 0 3-1.346 3-3s-1.346-3-3-3-3 1.346-3 3 1.346 3 3 3zm0-4c.551 0 1 .449 1 1s-.449 1-1 1-1-.449-1-1 .449-1 1-1z" fill="#669e4f"/></g><g><path d="m52 20h-2v1.586l-4.293-4.293c-.187-.188-.442-.293-.707-.293h-.78c-.33-.366-.746-.647-1.22-.816v-3.184c0-.551.449-1 1-1h1.586l-1.293 1.293 1.414 1.414 3-3c.391-.391.391-1.023 0-1.414l-3-3-1.414 1.414 1.293 1.293h-1.586c-1.654 0-3 1.346-3 3v3.184c-1.047.373-1.818 1.305-1.962 2.44l-3.624-3.624h1.586v-2h-4c-.552 0-1 .448-1 1v4h2v-1.586l4.293 4.293c.187.188.442.293.707.293h.78c.33.366.746.647 1.22.816v3.184c0 .551-.449 1-1 1h-7v2h7c1.654 0 3-1.346 3-3v-3.184c1.047-.373 1.818-1.305 1.962-2.44l3.624 3.624h-1.586v2h4c.552 0 1-.448 1-1zm-10 0c-.551 0-1-.449-1-1s.449-1 1-1 1 .449 1 1-.449 1-1 1z" fill="#c66b60"/></g></g></svg>