<svg id="Layer_5" enable-background="new 0 0 64 64" height="512" viewBox="0 0 64 64" width="512" xmlns="http://www.w3.org/2000/svg"><g><path d="m61.438 54.584c-.473-.631-1.032-1.176-1.653-1.629.782-1.54 1.215-3.227 1.215-4.955v-4c0-6.065-4.935-11-11-11-.352 0-.699.02-1.042.053.026-.364.042-.714.042-1.053 0-9.374-7.626-17-17-17-3.51 0-6.857 1.077-9.732 3.099-.571-.244-1.17-.429-1.796-.533l-1.863-.311c1.462-1.284 2.391-3.161 2.391-5.255v-4c0-3.859-3.141-7-7-7-1.214 0-2.41.336-3.461.935-.693-.575-1.57-.935-2.539-.935-2.206 0-4 1.794-4 4 0 1.859 1.279 3.411 3 3.858v3.142c0 2.094.929 3.971 2.391 5.255l-1.863.311c-1.991.33-3.755 1.402-4.966 3.019-1.007 1.343-1.562 3.007-1.562 4.686v3.729h14.299c-.779 4.26.088 8.403 2.622 12.327 2.313 3.583 5.755 6.109 9.691 7.113 1.423.363 2.86.543 4.286.55.035.001.068.01.102.01.042 0 .083-.01.125-.012 2.375-.02 4.709-.535 6.875-1.518v.53c0 1.728.433 3.415 1.216 4.955-.622.453-1.181.998-1.653 1.629-1.008 1.344-1.563 3.008-1.563 4.687v3.729h26v-3.729c0-1.679-.555-3.343-1.562-4.687zm-21.207-15.619c.425-1.831.68-3.84.743-5.965h5.984c-.011.14-.035.302-.051.45-2.903.853-5.308 2.872-6.676 5.515zm-8.144 8.025c-.067 0-.133-.002-.2-.003-2.187-.079-4.163-2.436-5.433-5.987h11.092c-1.275 3.565-3.262 5.929-5.459 5.99zm6.072-7.99h-12.318c-.462-1.821-.746-3.858-.816-6h13.951c-.07 2.142-.355 4.179-.817 6zm-6.159-22c2.232 0 4.254 2.387 5.546 6h-10.9c-.029-.095-.053-.191-.086-.285 1.354-3.578 3.37-5.715 5.44-5.715zm-5 12v-3.729c0-.091-.019-.18-.022-.271h11.182c.462 1.821.746 3.858.816 6h-13.945c.022-.674.065-1.34.13-2zm19.949 2h-5.975c-.063-2.139-.322-4.16-.752-6h5.034c.961 1.812 1.55 3.845 1.693 6zm-2.977-8h-4.308c-.658-2.023-1.528-3.762-2.566-5.089 2.759 1.002 5.137 2.785 6.874 5.089zm-17.085-5.088c-.563.726-1.081 1.582-1.548 2.554-.355-.455-.756-.862-1.192-1.222.873-.542 1.791-.984 2.74-1.332zm-14.887.793c.634.19 1.305.295 2 .295s1.366-.105 2-.295v.295c0 1.103-.897 2-2 2s-2-.897-2-2zm-6-13.705c0-1.103.897-2 2-2s2 .897 2 2h2c0-.511-.105-.995-.28-1.445.702-.359 1.488-.555 2.28-.555 2.414 0 4.434 1.721 4.899 4h-10.899c-1.103 0-2-.897-2-2zm3 7v-3h10v3c0 2.757-2.243 5-5 5s-5-2.243-5-5zm-6 13.271c0-1.249.413-2.487 1.162-3.487.901-1.201 2.213-1.999 3.694-2.245l2.161-.361c.096 2.122 1.838 3.822 3.983 3.822s3.887-1.7 3.982-3.823l2.161.361c1.481.246 2.793 1.044 3.694 2.245.749 1 1.162 2.238 1.162 3.487v1.73h-21.999zm20.153 3.729c-.061.662-.101 1.327-.121 2h-5.982c.048-.66.148-1.327.289-2zm-6.112 4h5.985c.063 2.139.322 4.16.752 6h-4.905c-1.073-1.971-1.684-3.962-1.832-6zm3.097 8h4.198c.667 2.051 1.55 3.81 2.607 5.144-2.681-.948-5.04-2.737-6.805-5.144zm16.957 5.094c.772-.986 1.449-2.201 2.019-3.587-.067.49-.114.985-.114 1.493v1.235c-.623.331-1.257.621-1.905.859zm3.905 1.906v-4c0-4.963 4.037-9 9-9s9 4.037 9 9v4c0 1.392-.343 2.753-.966 3.999-.5-.195-1.022-.344-1.562-.433l-1.863-.311c1.462-1.284 2.391-3.161 2.391-5.255v-4h-2.172c-1.534 0-3.036-.622-4.121-1.707l-.707-.707-.707.707c-1.085 1.085-2.587 1.707-4.121 1.707h-2.172v4c0 2.094.929 3.971 2.391 5.255l-1.863.311c-.54.09-1.062.238-1.562.433-.623-1.246-.966-2.607-.966-3.999zm9 3c-2.757 0-5-2.243-5-5v-2h.172c1.745 0 3.459-.6 4.828-1.668 1.369 1.068 3.083 1.668 4.828 1.668h.172v2c0 2.757-2.243 5-5 5zm-2 1.705c.634.19 1.305.295 2 .295s1.366-.105 2-.295v.295c0 1.103-.897 2-2 2s-2-.897-2-2zm13 8.295h-22v-1.729c0-1.249.413-2.487 1.162-3.487.901-1.201 2.213-1.999 3.694-2.245l2.161-.361c.096 2.122 1.838 3.822 3.983 3.822s3.887-1.7 3.982-3.823l2.161.361c1.481.246 2.793 1.044 3.694 2.245.749 1 1.162 2.238 1.162 3.487v1.73z"/><path d="m11 57c0 3.309 2.691 6 6 6h10c3.309 0 6-2.691 6-6v-6h-16c-3.309 0-6 2.691-6 6zm20 0c0 2.206-1.794 4-4 4h-10c-2.206 0-4-1.794-4-4s1.794-4 4-4h14z"/><path d="m47 7c0-3.309-2.691-6-6-6h-10c-3.309 0-6 2.691-6 6v6h16c3.309 0 6-2.691 6-6zm-20 0c0-2.206 1.794-4 4-4h10c2.206 0 4 1.794 4 4s-1.794 4-4 4h-14z"/><path d="m15 56h2v2h-2z"/><path d="m19 56h2v2h-2z"/><path d="m27 56h2v2h-2z"/><path d="m23 56h2v2h-2z"/><path d="m41 6h2v2h-2z"/><path d="m29 6h2v2h-2z"/><path d="m37 6h2v2h-2z"/><path d="m33 6h2v2h-2z"/></g></svg>